<svg width="152" height="52" viewBox="0 0 152 52" fill="none" xmlns="http://www.w3.org/2000/svg">
<rect width="152" height="52" rx="4" fill="#450475"/>
<path d="M14.7625 17.0533C20.4637 17.0533 23.8382 20.567 23.8382 26.6274C23.8382 32.7014 20.4773 36.2559 14.7625 36.2559H8V17.0533H14.7625ZM10.9799 33.6819H14.4904C18.5588 33.6819 20.8039 31.1897 20.8039 26.6546C20.8039 22.1332 18.5452 19.6273 14.4904 19.6273H10.9799V33.6819Z" fill="#FFCD29"/>
<path d="M37.0642 36.2559H34.3157V33.8863H34.2477C33.4721 35.5614 32.057 36.5011 29.9071 36.5011C26.8592 36.5011 24.9951 34.5127 24.9951 31.3123V22.2558H27.8661V30.7539C27.8661 32.8785 28.873 34.0225 30.8596 34.0225C32.9278 34.0225 34.1796 32.5789 34.1796 30.3998V22.2422H37.0506V36.2559H37.0642Z" fill="#FFCD29"/>
<path d="M41.5948 33.8726H41.5403V36.2559H38.751V17.0533H41.622V24.639H41.69C42.5336 23.0184 44.1256 22.0242 46.0986 22.0242C49.6227 22.0242 51.9222 24.8161 51.9222 29.2558C51.9222 33.6955 49.6363 36.501 46.085 36.501C44.044 36.501 42.4656 35.4932 41.5948 33.8726ZM41.6084 29.2558C41.6084 32.1702 43.1323 34.0632 45.323 34.0632C47.5817 34.0632 48.9832 32.2247 48.9832 29.2558C48.9832 26.3141 47.5817 24.4484 45.323 24.4484C43.1459 24.4484 41.6084 26.3686 41.6084 29.2558Z" fill="#FFCD29"/>
<path d="M55.8682 33.8726H55.8138V36.2559H53.0244V17.0533H55.8818V24.639H55.9498C56.7935 23.0184 58.3854 22.0242 60.3584 22.0242C63.8825 22.0242 66.1821 24.8161 66.1821 29.2558C66.1821 33.6955 63.8961 36.501 60.3448 36.501C58.3038 36.501 56.7254 35.4932 55.8682 33.8726ZM55.8682 29.2558C55.8682 32.1702 57.3922 34.0632 59.5828 34.0632C61.8415 34.0632 63.243 32.2247 63.243 29.2558C63.243 26.3141 61.8415 24.4484 59.5828 24.4484C57.4058 24.4484 55.8682 26.3686 55.8682 29.2558Z" fill="#FFCD29"/>
<path d="M67.0254 32.2791C67.0254 29.8277 68.9031 28.3297 72.2231 28.139L76.0466 27.9075V26.8316C76.0466 25.2791 74.9989 24.3393 73.2436 24.3393C71.5836 24.3393 70.5495 25.1429 70.291 26.3822H67.5833C67.7465 23.8491 69.8964 21.9969 73.3525 21.9969C76.7406 21.9969 78.904 23.7946 78.904 26.6001V36.2422H76.1555V33.9406H76.0874C75.271 35.4932 73.5022 36.4873 71.6789 36.4873C68.9303 36.5009 67.0254 34.7986 67.0254 32.2791ZM76.0466 31.0126V29.9094L72.6041 30.1273C70.8897 30.2499 69.9236 30.9989 69.9236 32.1974C69.9236 33.4231 70.9305 34.2266 72.4817 34.2266C74.4818 34.2266 76.0466 32.8375 76.0466 31.0126Z" fill="#FFCD29"/>
<path d="M119.756 34.6566H115.239V30.7617H115.127C113.852 33.515 111.526 35.0596 107.993 35.0596C102.983 35.0596 99.9189 31.7914 99.9189 26.531V11.6452H104.638V25.6132C104.638 29.1052 106.293 30.9856 109.558 30.9856C112.958 30.9856 115.015 28.6128 115.015 25.0312V11.6228H119.734V34.6566H119.756Z" fill="#FFCD29"/>
<path d="M144 23.1509C144 30.426 140.175 35.0596 134.405 35.0596C131.095 35.0596 128.479 33.4479 127.181 30.8737H127.07V42.2675H122.351V11.6452H126.913V15.6073H127.002C128.367 12.9659 131.006 11.2871 134.316 11.2871C140.153 11.2647 144 15.8759 144 23.1509ZM139.147 23.1509C139.147 18.3382 136.798 15.2492 133.063 15.2492C129.463 15.2492 127.025 18.4054 127.025 23.1509C127.025 27.9413 129.418 31.0527 133.063 31.0527C136.821 31.0527 139.147 27.986 139.147 23.1509Z" fill="#FFCD29"/>
<path d="M104.076 44C104.175 44 104.249 44 104.347 44C106.269 43.926 108.511 42.9397 109.521 41.7068C110.063 41.041 110.112 40.4739 110.063 40.1287C109.816 38.452 106.959 37.9589 105.283 37.8109C102.376 37.5397 100.233 38.4274 98.5087 39.1424H98.484C94.3945 34.1123 95.0351 24.3232 95.3061 20.1315L95.3307 19.8849C95.4539 18.9479 95.7002 16.3589 94.1235 13.9917C92.5222 11.6 89.9848 10.9589 88.7283 10.6383C86.856 10.1452 85.2547 10.2684 84.2939 10.3917C84.762 10.3424 86.9299 10.1205 88.8515 11.6C90.1079 12.5616 90.6253 13.7698 90.847 14.3369C90.847 14.3616 91.5861 15.6685 91.7339 17.2712C91.9556 19.7123 91.1919 22.4986 90.3789 25.4575C89.2211 29.6739 88.0385 34.063 89.8369 37.6383V37.663C90.847 39.6849 92.1773 40.9917 93.8033 41.5342C95.3307 42.052 96.661 41.7561 97.9913 41.263C99.1985 42.3479 101.366 44 104.076 44ZM108.314 40.3753C108.092 40.9178 106.269 42.1753 104.273 42.2493C102.45 42.3232 100.849 41.3369 99.7897 40.4493C101.317 39.8328 102.943 39.315 105.111 39.5123C106.491 39.6356 107.993 40.0548 108.314 40.3753ZM96.7596 39.7589C95.9219 40.0054 95.1582 40.0794 94.3453 39.8082C93.1874 39.4137 92.1773 38.4027 91.389 36.8246V36.8C89.8862 33.8164 90.9948 29.7726 92.0541 25.852C92.8671 22.8684 93.7047 19.8109 93.4584 17.0739C93.4584 17 93.4584 16.9507 93.4338 16.8767C93.6801 18.0109 93.6062 19.0712 93.5569 19.7369L93.5323 19.9835C93.2366 24.6191 92.6454 34.1369 96.7596 39.7589Z" fill="#FFCD29"/>
<path d="M73.8488 8C73.7503 8 73.6764 8 73.5778 8C71.6563 8.07397 69.4144 9.06027 68.4044 10.2931C67.8624 10.9589 67.8131 11.526 67.8624 11.8712C68.1087 13.5479 70.9665 14.0411 72.6417 14.189C75.5487 14.4603 77.692 13.5726 79.4165 12.8575H79.4411C83.5306 17.8877 82.8901 27.6767 82.6191 31.8685L82.5945 32.1151C82.4713 33.052 82.2249 35.6411 83.8016 38.0082C85.4029 40.4 87.9404 41.0411 89.1968 41.3616C91.0691 41.8548 92.6704 41.7315 93.6312 41.6082C93.1631 41.6575 90.9952 41.8794 89.0736 40.4C87.8172 39.4383 87.2998 38.2301 87.0781 37.663C87.0781 37.6383 86.3391 36.3315 86.1912 34.7288C85.9695 32.2877 86.7332 29.5014 87.5462 26.5424C88.7041 22.326 89.8866 17.937 88.0882 14.3616V14.337C87.0781 12.3151 85.7478 11.0082 84.1219 10.4658C82.5944 9.94794 81.2641 10.2438 79.9338 10.737C78.7267 9.65205 76.5588 8 73.8488 8ZM69.6115 11.6246C69.8332 11.0822 71.6563 9.82465 73.6517 9.75068C75.4748 9.67671 77.0761 10.663 78.1354 11.5507C76.608 12.1671 74.9821 12.6849 72.8141 12.4877C71.4345 12.3644 69.9318 11.9452 69.6115 11.6246ZM81.1656 12.2411C82.0032 11.9945 82.7669 11.9205 83.5799 12.1918C84.7378 12.5863 85.7478 13.5973 86.5361 15.1753V15.2C88.0389 18.1835 86.9303 22.2274 85.871 26.1479C85.058 29.1315 84.2204 32.189 84.4668 34.926C84.4668 35 84.4667 35.0493 84.4914 35.1233C84.245 33.989 84.3189 32.9288 84.3682 32.263L84.3928 32.0164C84.6638 27.3808 85.2797 17.8877 81.1656 12.2411Z" fill="#FFCD29"/>
</svg>
