<svg width="17" height="16" viewBox="0 0 17 16" fill="none" xmlns="http://www.w3.org/2000/svg">
<g clip-path="url(#clip0_1552_32581)">
<path d="M13.9652 2.3998L10.7652 0.799805L9.96523 1.5998H6.76523L5.96523 0.799805L2.76523 2.3998C0.365234 5.5998 0.365234 7.9998 0.365234 11.1998L4.36523 13.5998L5.16523 11.9998L4.36523 11.1998H12.3652L11.5652 11.9998L12.3652 13.5998L16.3652 11.1998C16.3652 7.9998 15.5652 4.7998 13.9652 2.3998ZM5.96523 9.5998L4.36523 7.9998L5.96523 6.3998L6.76523 7.9998L5.96523 9.5998ZM10.7652 9.5998L9.96523 7.9998L10.7652 6.3998L12.3652 7.9998L10.7652 9.5998Z" fill="#6C3B91"/>
</g>
<defs>
<clipPath id="clip0_1552_32581">
<rect width="16" height="16" fill="white" transform="translate(0.365234)"/>
</clipPath>
</defs>
</svg>
