<svg width="53" height="52" viewBox="0 0 53 52" fill="none" xmlns="http://www.w3.org/2000/svg">
<mask id="path-1-inside-1_1544_31716" fill="white">
<path d="M0.666992 26C0.666992 11.6406 12.3076 0 26.667 0C41.0264 0 52.667 11.6406 52.667 26C52.667 40.3594 41.0264 52 26.667 52C12.3076 52 0.666992 40.3594 0.666992 26Z"/>
</mask>
<path d="M0.666992 26C0.666992 11.6406 12.3076 0 26.667 0C41.0264 0 52.667 11.6406 52.667 26C52.667 40.3594 41.0264 52 26.667 52C12.3076 52 0.666992 40.3594 0.666992 26Z" fill="url(#paint0_linear_1544_31716)"/>
<path d="M0.666992 25C0.666992 10.6406 12.3076 -1 26.667 -1C41.0264 -1 52.667 10.6406 52.667 25V26C52.667 12.1929 41.0264 1 26.667 1C12.3076 1 0.666992 12.1929 0.666992 26V25ZM52.667 52H0.666992H52.667ZM0.666992 52V0V52ZM52.667 0V52V0Z" fill="black" fill-opacity="0.12" mask="url(#path-1-inside-1_1544_31716)"/>
<path d="M34.9939 31.6196L34.4946 31.0599H34.4946L34.9939 31.6196ZM32.1807 31.9166C31.7665 31.9166 31.4307 32.2524 31.4307 32.6666C31.4307 33.0808 31.7665 33.4166 32.1807 33.4166V31.9166ZM31.2507 27.75C30.8364 27.75 30.5007 28.0857 30.5007 28.5C30.5007 28.9142 30.8364 29.25 31.2507 29.25V27.75ZM29.4381 19.4883C29.0318 19.5689 28.7677 19.9636 28.8483 20.3699C28.9289 20.7762 29.3236 21.0402 29.7299 20.9596L29.4381 19.4883ZM29.7299 24.3737C29.3236 24.2931 28.9289 24.5571 28.8483 24.9634C28.7677 25.3697 29.0318 25.7644 29.4381 25.845L29.7299 24.3737ZM34.4946 31.0599C33.883 31.6055 33.2919 31.9166 32.5892 31.9166V33.4166C33.8029 33.4166 34.7361 32.8546 35.4932 32.1793L34.4946 31.0599ZM32.1807 33.4166H32.5892V31.9166H32.1807V33.4166ZM31.2507 29.25C31.4911 29.25 31.9258 29.3241 32.4463 29.4856C32.9555 29.6436 33.4852 29.8661 33.9121 30.1217C34.367 30.3941 34.5884 30.6349 34.652 30.7796C34.6733 30.8281 34.6665 30.8405 34.6656 30.8439C34.6619 30.8575 34.6365 30.9333 34.4946 31.0599L35.4932 32.1793C35.7859 31.9182 36.0131 31.6057 36.1132 31.2367C36.2161 30.8574 36.1644 30.4929 36.0253 30.1762C35.7679 29.5906 35.2064 29.1484 34.6827 28.8348C34.1307 28.5043 33.4859 28.2376 32.8908 28.053C32.3071 27.8719 31.7078 27.75 31.2507 27.75V29.25ZM32.1673 22.6666C32.1673 23.5684 31.3415 24.4166 30.1713 24.4166V25.9166C32.0343 25.9166 33.6673 24.5263 33.6673 22.6666H32.1673ZM30.1713 20.9166C31.3415 20.9166 32.1673 21.7648 32.1673 22.6666H33.6673C33.6673 20.807 32.0343 19.4166 30.1713 19.4166V20.9166ZM29.7299 20.9596C29.8712 20.9316 30.0188 20.9166 30.1713 20.9166V19.4166C29.9206 19.4166 29.6752 19.4412 29.4381 19.4883L29.7299 20.9596ZM30.1713 24.4166C30.0188 24.4166 29.8712 24.4017 29.7299 24.3737L29.4381 25.845C29.6752 25.892 29.9206 25.9166 30.1713 25.9166V24.4166Z" fill="#FFC107"/>
<path d="M20.4014 29.4259L20.0472 28.7649L20.4014 29.4259ZM27.9326 29.4259L28.2868 28.7649L27.9326 29.4259ZM18.4119 32.3728L17.9237 32.9422H17.9237L18.4119 32.3728ZM29.9221 32.3728L29.4339 31.8035H29.4339L29.9221 32.3728ZM20.7557 30.087C22.8383 28.9709 25.4957 28.9709 27.5783 30.087L28.2868 28.7649C25.7616 27.4116 22.5723 27.4116 20.0472 28.7649L20.7557 30.087ZM21.1051 34.25H27.2289V32.75H21.1051V34.25ZM18.9001 31.8035C18.7584 31.682 18.7017 31.5957 18.6804 31.5522C18.6704 31.5316 18.668 31.5202 18.6674 31.5169C18.6669 31.5139 18.6669 31.5122 18.6672 31.5093C18.6699 31.487 18.7062 31.3661 18.9456 31.1551C19.43 30.7284 20.1832 30.3938 20.7557 30.087L20.0472 28.7649C19.6372 28.9846 18.6111 29.4508 17.9541 30.0296C17.6229 30.3213 17.2479 30.7544 17.1782 31.3284C17.1011 31.9627 17.419 32.5095 17.9237 32.9422L18.9001 31.8035ZM27.5783 30.087C28.1508 30.3938 28.9039 30.7284 29.3883 31.1551C29.6278 31.3661 29.6641 31.487 29.6668 31.5093C29.6671 31.5122 29.6671 31.5139 29.6666 31.5169C29.666 31.5202 29.6636 31.5316 29.6535 31.5522C29.6323 31.5957 29.5755 31.682 29.4339 31.8035L30.4103 32.9422C30.9149 32.5095 31.2328 31.9627 31.1558 31.3284C31.0861 30.7544 30.7111 30.3214 30.3799 30.0296C29.7229 29.4508 28.6968 28.9846 28.2868 28.7649L27.5783 30.087ZM29.4339 31.8035C28.7427 32.3961 28.0566 32.75 27.2289 32.75V34.25C28.5475 34.25 29.5686 33.6638 30.4103 32.9422L29.4339 31.8035ZM17.9237 32.9422C18.7653 33.6638 19.7864 34.25 21.1051 34.25V32.75C20.2774 32.75 19.5913 32.3961 18.9001 31.8035L17.9237 32.9422ZM26.7503 22.25C26.7503 23.6767 25.5937 24.8333 24.167 24.8333V26.3333C26.4222 26.3333 28.2503 24.5051 28.2503 22.25H26.7503ZM24.167 24.8333C22.7403 24.8333 21.5837 23.6767 21.5837 22.25H20.0837C20.0837 24.5051 21.9118 26.3333 24.167 26.3333V24.8333ZM21.5837 22.25C21.5837 20.8232 22.7403 19.6666 24.167 19.6666V18.1666C21.9118 18.1666 20.0837 19.9948 20.0837 22.25H21.5837ZM24.167 19.6666C25.5937 19.6666 26.7503 20.8232 26.7503 22.25H28.2503C28.2503 19.9948 26.4222 18.1666 24.167 18.1666V19.6666Z" fill="#FFC107"/>
<defs>
<linearGradient id="paint0_linear_1544_31716" x1="26.667" y1="0" x2="26.667" y2="52" gradientUnits="userSpaceOnUse">
<stop stop-color="white" stop-opacity="0"/>
<stop offset="1" stop-opacity="0.12"/>
</linearGradient>
</defs>
</svg>
