<svg width="12" height="12" viewBox="0 0 12 12" fill="none" xmlns="http://www.w3.org/2000/svg">
<path d="M11 6C11 8.76142 8.76142 11 6 11C3.23858 11 1 8.76142 1 6C1 3.23858 3.23858 1 6 1C8.76142 1 11 3.23858 11 6Z" stroke="white" stroke-width="1.3"/>
<path d="M5.85387 4.67446C5.94101 4.60851 6.05899 4.60851 6.14613 4.67446L7.2725 5.52702C7.35964 5.59297 7.3961 5.70987 7.36282 5.81658L6.93258 7.19604C6.8993 7.30275 6.80384 7.375 6.69614 7.375H5.30386C5.19616 7.375 5.1007 7.30275 5.06742 7.19604L4.63718 5.81658C4.6039 5.70987 4.64036 5.59297 4.7275 5.52702L5.85387 4.67446Z" stroke="white" stroke-width="1.3"/>
<path d="M6 4.5V2.5M7.5 5.5L9.5 4.75M7 7.5L8 9M5 7.25L4 8.5M4.5 5.75L2.5 5.25" stroke="white" stroke-width="1.3" stroke-linecap="round" stroke-linejoin="round"/>
<path d="M6.00827 2.31121L5.63424 2.84281C5.85962 3.00139 6.1605 3.0006 6.38506 2.84086L6.00827 2.31121ZM2.59827 5.21942L2.98445 5.74227C3.22914 5.56154 3.31576 5.23528 3.19294 4.95698L2.59827 5.21942ZM7.80791 9.07774L7.92367 8.43813C7.60945 8.38126 7.30045 8.56105 7.19463 8.86234L7.80791 9.07774ZM9.40173 4.69489L8.79492 4.4619C8.69014 4.7348 8.78042 5.04407 9.01555 5.21774L9.40173 4.69489ZM4.02571 8.58327L4.67568 8.58963C4.67739 8.41494 4.6087 8.24691 4.48511 8.12344C4.36152 7.99996 4.19342 7.93143 4.01873 7.93331L4.02571 8.58327ZM4.12597 1.7816L5.63424 2.84281L6.3823 1.7796L4.87403 0.718398L4.12597 1.7816ZM6.38506 2.84086L7.87679 1.77965L7.12321 0.72035L5.63148 1.78156L6.38506 2.84086ZM1.38617 6.92274L2.98445 5.74227L2.2121 4.69657L0.613829 5.87704L1.38617 6.92274ZM3.19294 4.95698L2.3724 3.09778L1.18308 3.62267L2.00361 5.48187L3.19294 4.95698ZM9.85089 8.78694L7.92367 8.43813L7.69214 9.71735L9.61936 10.0662L9.85089 8.78694ZM7.19463 8.86234L6.51948 10.7846L7.74603 11.2154L8.42118 9.29314L7.19463 8.86234ZM9.40808 2.86494L8.79492 4.4619L10.0085 4.92788L10.6217 3.33092L9.40808 2.86494ZM9.01555 5.21774L10.6138 6.39821L11.3862 5.35251L9.7879 4.17204L9.01555 5.21774ZM4.65493 10.7093L4.67568 8.58963L3.37574 8.57691L3.35499 10.6966L4.65493 10.7093ZM4.01873 7.93331L1.99468 7.95504L2.00863 9.25496L4.03269 9.23323L4.01873 7.93331Z" fill="white"/>
</svg>
