<svg width="152" height="35" viewBox="0 0 152 35" fill="none" xmlns="http://www.w3.org/2000/svg">
<g id="Group 1200">
<g id="Group 1199">
<g id="Group 1197">
<path id="Vector" d="M7.87362 6.80811C14.2036 6.80811 17.9503 10.6146 17.9503 17.18C17.9503 23.7601 14.2187 27.6108 7.87362 27.6108H0.365234V6.80811H7.87362ZM3.67376 24.8224H7.57147C12.0886 24.8224 14.5813 22.1225 14.5813 17.2095C14.5813 12.3112 12.0735 9.59656 7.57147 9.59656H3.67376V24.8224Z" fill="#6C3B91"/>
<path id="Vector_2" d="M32.6346 27.6108H29.5829V25.0436H29.5074C28.6463 26.8583 27.0751 27.8763 24.6881 27.8763C21.3041 27.8763 19.2344 25.7223 19.2344 22.2552V12.4439H22.422V21.6503C22.422 23.9518 23.54 25.1912 25.7457 25.1912C28.042 25.1912 29.4319 23.6273 29.4319 21.2667V12.4292H32.6195V27.6108H32.6346Z" fill="#6C3B91"/>
<path id="Vector_3" d="M37.6653 25.0289H37.6048V27.6108H34.5078V6.80811H37.6955V15.0259H37.771C38.7077 13.2702 40.4752 12.1932 42.6658 12.1932C46.5786 12.1932 49.1318 15.2177 49.1318 20.0274C49.1318 24.8371 46.5937 27.8764 42.6507 27.8764C40.3846 27.8764 38.6321 26.7846 37.6653 25.0289ZM37.6804 20.0274C37.6804 23.1847 39.3724 25.2355 41.8047 25.2355C44.3125 25.2355 45.8686 23.2437 45.8686 20.0274C45.8686 16.8406 44.3125 14.8194 41.8047 14.8194C39.3875 14.8194 37.6804 16.8997 37.6804 20.0274Z" fill="#6C3B91"/>
<path id="Vector_4" d="M53.5129 25.0289H53.4525V27.6108H50.3555V6.80811H53.528V15.0259H53.6036C54.5402 13.2702 56.3078 12.1932 58.4984 12.1932C62.4112 12.1932 64.9643 15.2177 64.9643 20.0274C64.9643 24.8371 62.4263 27.8764 58.4833 27.8764C56.2171 27.8764 54.4647 26.7846 53.5129 25.0289ZM53.5129 20.0274C53.5129 23.1847 55.2049 25.2355 57.6372 25.2355C60.1451 25.2355 61.7011 23.2437 61.7011 20.0274C61.7011 16.8406 60.1451 14.8194 57.6372 14.8194C55.2201 14.8194 53.5129 16.8997 53.5129 20.0274Z" fill="#6C3B91"/>
<path id="Vector_5" d="M65.9014 23.3026C65.9014 20.647 67.9862 19.024 71.6724 18.8175L75.9176 18.5667V17.4011C75.9176 15.7192 74.7543 14.7012 72.8054 14.7012C70.9623 14.7012 69.8142 15.5717 69.5271 16.9143H66.5208C66.7021 14.1701 69.089 12.1636 72.9263 12.1636C76.6881 12.1636 79.0901 14.1111 79.0901 17.1503V27.596H76.0384V25.1026H75.9629C75.0564 26.7845 73.0925 27.8615 71.0681 27.8615C68.0164 27.8763 65.9014 26.0321 65.9014 23.3026ZM75.9176 21.9305V20.7355L72.0954 20.9715C70.1919 21.1043 69.1192 21.9158 69.1192 23.2141C69.1192 24.5419 70.2372 25.4124 71.9594 25.4124C74.1802 25.4124 75.9176 23.9075 75.9176 21.9305Z" fill="#6C3B91"/>
</g>
<g id="Group 1198">
<path id="Vector_6" d="M124.448 25.8781H119.432V21.6586H119.308C117.893 24.6414 115.31 26.3146 111.387 26.3146C105.825 26.3146 102.423 22.7741 102.423 17.0753V0.949049H107.662V16.0811C107.662 19.8641 109.5 21.9011 113.125 21.9011C116.9 21.9011 119.184 19.3306 119.184 15.4506V0.924805H124.423V25.8781H124.448Z" fill="#6C3B91"/>
<path id="Vector_7" d="M151.366 13.4137C151.366 21.2949 147.12 26.3147 140.713 26.3147C137.038 26.3147 134.133 24.5687 132.693 21.7799H132.569V34.1232H127.329V0.949118H132.395V5.24138H132.494C134.009 2.37988 136.939 0.561123 140.614 0.561123C147.095 0.536873 151.366 5.53239 151.366 13.4137ZM145.978 13.4137C145.978 8.1999 143.37 4.85339 139.223 4.85339C135.226 4.85339 132.519 8.27265 132.519 13.4137C132.519 18.6032 135.176 21.9739 139.223 21.9739C143.395 21.9739 145.978 18.6517 145.978 13.4137Z" fill="#6C3B91"/>
</g>
</g>
</g>
</svg>
