<svg width="136" height="32" viewBox="0 0 136 32" fill="none" xmlns="http://www.w3.org/2000/svg">
<path d="M6.76252 6.05334C12.4637 6.05334 15.8382 9.567 15.8382 15.6274C15.8382 21.7014 12.4773 25.2559 6.76252 25.2559H0V6.05334H6.76252ZM2.97986 22.6819H6.49038C10.5588 22.6819 12.8039 20.1897 12.8039 15.6546C12.8039 11.1332 10.5452 8.6273 6.49038 8.6273H2.97986V22.6819Z" fill="#FFCD29"/>
<path d="M29.0642 25.2559H26.3157V22.8863H26.2477C25.4721 24.5614 24.057 25.5011 21.9071 25.5011C18.8592 25.5011 16.9951 23.5127 16.9951 20.3123V11.2558H19.8661V19.7539C19.8661 21.8785 20.873 23.0225 22.8596 23.0225C24.9278 23.0225 26.1796 21.5789 26.1796 19.3998V11.2422H29.0506V25.2559H29.0642Z" fill="#FFCD29"/>
<path d="M33.5948 22.8726H33.5403V25.2559H30.751V6.05334H33.622V13.639H33.69C34.5336 12.0184 36.1256 11.0242 38.0986 11.0242C41.6227 11.0242 43.9222 13.8161 43.9222 18.2558C43.9222 22.6955 41.6363 25.501 38.085 25.501C36.044 25.501 34.4656 24.4932 33.5948 22.8726ZM33.6084 18.2558C33.6084 21.1702 35.1323 23.0632 37.323 23.0632C39.5817 23.0632 40.9832 21.2247 40.9832 18.2558C40.9832 15.3141 39.5817 13.4484 37.323 13.4484C35.1459 13.4484 33.6084 15.3686 33.6084 18.2558Z" fill="#FFCD29"/>
<path d="M47.8682 22.8726H47.8138V25.2559H45.0244V6.05334H47.8818V13.639H47.9498C48.7935 12.0184 50.3854 11.0242 52.3584 11.0242C55.8825 11.0242 58.1821 13.8161 58.1821 18.2558C58.1821 22.6955 55.8961 25.501 52.3448 25.501C50.3038 25.501 48.7254 24.4932 47.8682 22.8726ZM47.8682 18.2558C47.8682 21.1702 49.3922 23.0632 51.5828 23.0632C53.8415 23.0632 55.243 21.2247 55.243 18.2558C55.243 15.3141 53.8415 13.4484 51.5828 13.4484C49.4058 13.4484 47.8682 15.3686 47.8682 18.2558Z" fill="#FFCD29"/>
<path d="M59.0254 21.2791C59.0254 18.8277 60.9031 17.3297 64.2231 17.139L68.0466 16.9075V15.8316C68.0466 14.2791 66.9989 13.3393 65.2436 13.3393C63.5836 13.3393 62.5495 14.1429 62.291 15.3822H59.5833C59.7465 12.8491 61.8964 10.9969 65.3525 10.9969C68.7406 10.9969 70.904 12.7946 70.904 15.6001V25.2422H68.1555V22.9406H68.0874C67.271 24.4932 65.5022 25.4873 63.6789 25.4873C60.9303 25.5009 59.0254 23.7986 59.0254 21.2791ZM68.0466 20.0126V18.9094L64.6041 19.1273C62.8897 19.2499 61.9236 19.9989 61.9236 21.1974C61.9236 22.4231 62.9305 23.2266 64.4817 23.2266C66.4818 23.2266 68.0466 21.8375 68.0466 20.0126Z" fill="#FFCD29"/>
<path d="M111.756 23.6566H107.239V19.7617H107.127C105.852 22.515 103.526 24.0596 99.9926 24.0596C94.9829 24.0596 91.9189 20.7914 91.9189 15.531V0.645182H96.6379V14.6132C96.6379 18.1052 98.2929 19.9856 101.558 19.9856C104.958 19.9856 107.015 17.6128 107.015 14.0312V0.622803H111.734V23.6566H111.756Z" fill="#FFCD29"/>
<path d="M136 12.1509C136 19.426 132.175 24.0596 126.405 24.0596C123.095 24.0596 120.479 22.4479 119.181 19.8737H119.07V31.2675H114.351V0.645218H118.913V4.60731H119.002C120.367 1.96592 123.006 0.287068 126.316 0.287068C132.153 0.264684 136 4.87593 136 12.1509ZM131.147 12.1509C131.147 7.33824 128.798 4.24916 125.063 4.24916C121.463 4.24916 119.025 7.4054 119.025 12.1509C119.025 16.9413 121.418 20.0527 125.063 20.0527C128.821 20.0527 131.147 16.986 131.147 12.1509Z" fill="#FFCD29"/>
</svg>
