<svg width="44" height="36" viewBox="0 0 44 36" fill="none" xmlns="http://www.w3.org/2000/svg">
<g id="Group 1200">
<g id="Group 1199">
<g id="Group 6">
<g id="Group 5">
<g id="Group">
<path id="Vector" d="M37.0763 36C37.1748 36 37.2487 36 37.3473 36C39.2689 35.926 41.5107 34.9397 42.5208 33.7068C43.0627 33.041 43.112 32.4739 43.0628 32.1287C42.8164 30.452 39.9587 29.9589 38.2834 29.8109C35.3765 29.5397 33.2332 30.4274 31.5087 31.1424H31.484C27.3945 26.1123 28.0351 16.3232 28.3061 12.1315L28.3307 11.8849C28.4539 10.9479 28.7002 8.35887 27.1235 5.99174C25.5222 3.59996 22.9848 2.95886 21.7283 2.63831C19.856 2.14516 18.2547 2.26845 17.2939 2.39174C17.762 2.34242 19.9299 2.12051 21.8515 3.59996C23.1079 4.5616 23.6253 5.76982 23.847 6.33694C23.847 6.3616 24.5861 7.66845 24.7339 9.27119C24.9556 11.7123 24.1919 14.4986 23.3789 17.4575C22.2211 21.6739 21.0385 26.063 22.8369 29.6383V29.663C23.847 31.6849 25.1773 32.9917 26.8033 33.5342C28.3307 34.052 29.661 33.7561 30.9913 33.263C32.1985 34.3479 34.3664 36 37.0763 36ZM41.3136 32.3753C41.0919 32.9178 39.2689 34.1753 37.2734 34.2493C35.4504 34.3232 33.849 33.3369 32.7897 32.4493C34.3171 31.8328 35.9431 31.315 38.111 31.5123C39.4906 31.6356 40.9933 32.0548 41.3136 32.3753ZM29.7596 31.7589C28.9219 32.0054 28.1582 32.0794 27.3453 31.8082C26.1874 31.4137 25.1773 30.4027 24.389 28.8246V28.8C22.8862 25.8164 23.9948 21.7726 25.0541 17.852C25.8671 14.8684 26.7047 11.8109 26.4584 9.07394C26.4584 8.99996 26.4584 8.95065 26.4338 8.87668C26.6801 10.0109 26.6062 11.0712 26.5569 11.7369L26.5323 11.9835C26.2366 16.6191 25.6454 26.1369 29.7596 31.7589Z" fill="#FFCD29"/>
</g>
<g id="Group_2">
<path id="Vector_2" d="M6.84884 0C6.7503 0 6.67637 0 6.57782 0C4.65625 0.0739726 2.41443 1.06027 1.40437 2.29315C0.862393 2.9589 0.813119 3.52601 0.86239 3.87122C1.10875 5.54793 3.96647 6.04109 5.64169 6.18903C8.54869 6.46027 10.692 5.57259 12.4165 4.85752H12.4411C16.5306 9.88766 15.8901 19.6767 15.6191 23.8685L15.5945 24.1151C15.4713 25.052 15.2249 27.6411 16.8016 30.0082C18.4029 32.4 20.9404 33.0411 22.1968 33.3616C24.0691 33.8548 25.6704 33.7315 26.6312 33.6082C26.1631 33.6575 23.9952 33.8794 22.0736 32.4C20.8172 31.4383 20.2998 30.2301 20.0781 29.663C20.0781 29.6383 19.3391 28.3315 19.1912 26.7288C18.9695 24.2877 19.7332 21.5014 20.5462 18.5424C21.7041 14.326 22.8866 9.93698 21.0882 6.36164V6.33697C20.0781 4.31506 18.7478 3.00822 17.1219 2.46575C15.5944 1.94794 14.2641 2.24383 12.9338 2.73698C11.7267 1.65205 9.55875 0 6.84884 0ZM2.61151 3.62464C2.83323 3.08218 4.65626 1.82465 6.65174 1.75068C8.47477 1.67671 10.0761 2.663 11.1354 3.55068C9.608 4.16711 7.98206 4.68492 5.81413 4.48766C4.43454 4.36437 2.93177 3.94519 2.61151 3.62464ZM14.1656 4.24108C15.0032 3.99451 15.7669 3.92055 16.5799 4.19178C17.7378 4.5863 18.7478 5.59725 19.5361 7.17533V7.19999C21.0389 10.1835 19.9303 14.2274 18.871 18.1479C18.058 21.1315 17.2204 24.189 17.4668 26.926C17.4668 27 17.4667 27.0493 17.4914 27.1233C17.245 25.989 17.3189 24.9288 17.3682 24.263L17.3928 24.0164C17.6638 19.3808 18.2797 9.88766 14.1656 4.24108Z" fill="#FFCD29"/>
</g>
</g>
</g>
</g>
</g>
</svg>
