<svg width="48" height="39" viewBox="0 0 48 39" fill="none" xmlns="http://www.w3.org/2000/svg">
<g id="Group 1200">
<g id="Group 1199">
<g id="Group 6">
<g id="Group 5">
<g id="Group">
<path id="Vector" d="M41.0385 39.0001C41.1479 39.0001 41.2299 39.0001 41.3393 39.0001C43.4728 38.9199 45.9619 37.8514 47.0834 36.5158C47.6852 35.7946 47.7399 35.1802 47.6852 34.8062C47.4116 32.9898 44.2387 32.4555 42.3787 32.2952C39.1511 32.0014 36.7714 32.9631 34.8567 33.7377H34.8294C30.2889 28.2884 31 17.6836 31.3009 13.1425L31.3282 12.8754C31.465 11.8603 31.7385 9.05553 29.988 6.49115C28.21 3.90005 25.3927 3.20552 23.9977 2.85826C21.9189 2.32402 20.141 2.45758 19.0742 2.59114C19.5939 2.53772 22.001 2.29731 24.1345 3.90005C25.5295 4.94183 26.1039 6.25073 26.3501 6.86511C26.3501 6.89183 27.1706 8.30759 27.3348 10.0439C27.5809 12.6884 26.733 15.7069 25.8304 18.9124C24.5448 23.4802 23.2318 28.235 25.2286 32.1083V32.135C26.35 34.3254 27.8271 35.7411 29.6324 36.3288C31.3283 36.8898 32.8053 36.5692 34.2823 36.035C35.6226 37.2103 38.0297 39.0001 41.0385 39.0001ZM45.7431 35.0733C45.4969 35.661 43.4729 37.0233 41.2573 37.1035C39.2332 37.1836 37.4552 36.1151 36.2791 35.1535C37.9749 34.4857 39.7802 33.9247 42.1873 34.1384C43.719 34.272 45.3875 34.7261 45.7431 35.0733ZM32.9147 34.4055C31.9847 34.6727 31.1368 34.7528 30.2341 34.459C28.9486 34.0316 27.8271 32.9363 26.9518 31.2268V31.2001C25.2833 27.9679 26.5142 23.587 27.6903 19.3398C28.593 16.1076 29.523 12.7953 29.2494 9.83019C29.2494 9.75005 29.2495 9.69663 29.2221 9.6165C29.4956 10.8453 29.4136 11.9939 29.3589 12.7151L29.3315 12.9822C29.0033 18.0042 28.3468 28.3151 32.9147 34.4055Z" fill="#6C3B91"/>
</g>
<g id="Group_2">
<path id="Vector_2" d="M7.47656 0C7.36715 0 7.28506 0 7.17565 0C5.04214 0.080137 2.55306 1.14863 1.4316 2.48424C0.829839 3.20548 0.77513 3.81985 0.829835 4.19382C1.10336 6.01026 4.27628 6.54451 6.13627 6.70479C9.36389 6.99862 11.7436 6.03697 13.6583 5.26231H13.6856C18.2262 10.7116 17.515 21.3164 17.2141 25.8575L17.1868 26.1247C17.05 27.1397 16.7764 29.9445 18.527 32.5089C20.3049 35.1 23.1223 35.7945 24.5173 36.1418C26.5961 36.676 28.374 36.5425 29.4408 36.4089C28.9211 36.4623 26.514 36.7027 24.3805 35.1C22.9855 34.0582 22.4111 32.7493 22.1649 32.1349C22.1649 32.1082 21.3444 30.6925 21.1803 28.9562C20.9341 26.3116 21.782 23.2931 22.6847 20.0877C23.9702 15.5198 25.2831 10.7651 23.2864 6.89178V6.86505C22.1649 4.67464 20.6879 3.2589 18.8826 2.67123C17.1868 2.11027 15.7097 2.43081 14.2327 2.96506C12.8924 1.78972 10.4854 0 7.47656 0ZM2.77187 3.9267C3.01804 3.33903 5.04215 1.97671 7.25772 1.89657C9.28182 1.81643 11.0597 2.88492 12.2359 3.84657C10.54 4.51437 8.73476 5.07533 6.32772 4.86163C4.79597 4.72807 3.12746 4.27396 2.77187 3.9267ZM15.6003 4.59451C16.5303 4.32738 17.3782 4.24726 18.2809 4.5411C19.5665 4.96849 20.6879 6.06369 21.5632 7.77328V7.79999C23.2317 11.0322 22.0008 15.413 20.8247 19.6603C19.922 22.8925 18.992 26.2048 19.2656 29.1698C19.2656 29.25 19.2656 29.3034 19.2929 29.3836C19.0194 28.1548 19.1014 27.0062 19.1561 26.2849L19.1835 26.0178C19.4844 20.9959 20.1682 10.7116 15.6003 4.59451Z" fill="#6C3B91"/>
</g>
</g>
</g>
</g>
</g>
</svg>
