<svg width="12" height="12" viewBox="0 0 12 12" fill="none" xmlns="http://www.w3.org/2000/svg">
<path d="M3.9878 8.76531C4.04844 9.03471 3.8792 9.30226 3.6098 9.3629C3.17607 9.46053 2.85508 9.57744 2.65536 9.6917C2.61539 9.71457 2.58452 9.73468 2.5608 9.75176C2.56979 9.75826 2.57979 9.7652 2.59088 9.77256C2.73192 9.86619 2.96897 9.96991 3.30674 10.0648C3.97534 10.2525 4.92772 10.3751 6 10.3751C7.07228 10.3751 8.02466 10.2525 8.69326 10.0648C9.03103 9.96991 9.26808 9.86619 9.40912 9.77256C9.42021 9.7652 9.43021 9.75826 9.4392 9.75176C9.41548 9.73468 9.38461 9.71456 9.34464 9.6917C9.14492 9.57744 8.82393 9.46053 8.3902 9.3629C8.1208 9.30226 7.95156 9.03471 8.01221 8.76531C8.07285 8.49591 8.3404 8.32667 8.6098 8.38731C9.09053 8.49552 9.51954 8.63968 9.84121 8.8237C10.1271 8.98726 10.5 9.28361 10.5 9.75194C10.5 10.1649 10.2068 10.4433 9.9622 10.6057C9.69841 10.7808 9.34968 10.9191 8.9636 11.0275C8.18447 11.2463 7.13686 11.3751 6 11.3751C4.86314 11.3751 3.81553 11.2463 3.0364 11.0275C2.65032 10.9191 2.30159 10.7808 2.0378 10.6057C1.79322 10.4433 1.5 10.1649 1.5 9.75194C1.5 9.28361 1.87289 8.98726 2.15879 8.8237C2.48046 8.63968 2.90947 8.49552 3.3902 8.38731C3.6596 8.32667 3.92716 8.49591 3.9878 8.76531Z" fill="white"/>
<path fill-rule="evenodd" clip-rule="evenodd" d="M6.00026 0.625C4.47482 0.625 3.02604 1.55246 2.42079 3.00787C1.85732 4.36281 2.16364 5.51749 2.79637 6.50114C3.31277 7.30394 4.06623 8.02056 4.73844 8.65991C4.86618 8.78141 4.99099 8.90012 5.11068 9.01609L5.1115 9.01688C5.35017 9.24675 5.66887 9.375 6.00026 9.375C6.33166 9.375 6.65038 9.24673 6.88905 9.01686C7.0021 8.90796 7.1196 8.79661 7.23975 8.68276L7.2401 8.68242L7.24029 8.68225C7.91969 8.03843 8.68352 7.3146 9.20531 6.5016C9.83726 5.51698 10.1425 4.36114 9.57974 3.00787C8.97449 1.55246 7.5257 0.625 6.00026 0.625ZM6 3C5.17157 3 4.5 3.67157 4.5 4.5C4.5 5.32843 5.17157 6 6 6C6.82843 6 7.5 5.32843 7.5 4.5C7.5 3.67157 6.82843 3 6 3Z" fill="white"/>
</svg>
