<svg width="17" height="16" viewBox="0 0 17 16" fill="none" xmlns="http://www.w3.org/2000/svg">
<g clip-path="url(#clip0_1552_32579)">
<path d="M5.67523 14.25C11.1471 14.25 14.1396 9.4403 14.1396 5.26994C14.1396 5.03682 14.3048 4.83015 14.5172 4.73398C15.2455 4.40413 16.1901 3.49943 15.2146 1.97828C14.5683 2.32576 14.0371 2.51562 13.3255 2.74448C12.1992 1.47393 10.3147 1.41269 9.11663 2.60761C8.34373 3.37819 8.01623 4.52686 8.25593 5.62304C5.86374 5.49618 3.06311 3.73566 1.55273 1.76391C0.763374 3.20632 1.1663 5.05121 2.47345 5.97802C1.99984 5.96302 1.53683 5.82741 1.1233 5.58305V5.62304C1.1233 7.1255 2.12177 8.4191 3.50963 8.7166C3.07195 8.8435 2.61247 8.8622 2.16654 8.771C2.55651 10.0565 4.24497 11.4989 5.51795 11.5245C4.4641 12.4026 3.16284 12.8795 1.82329 12.8782C1.58649 12.8776 1.35027 12.8626 1.11523 12.8326C2.47599 13.7588 4.05882 14.25 5.67523 14.2475V14.25Z" fill="#6C3B91" stroke="#6C3B91" stroke-linecap="round" stroke-linejoin="round"/>
</g>
<defs>
<clipPath id="clip0_1552_32579">
<rect width="16" height="16" fill="white" transform="translate(0.365234)"/>
</clipPath>
</defs>
</svg>
