<svg width="16" height="16" viewBox="0 0 16 16" fill="none" xmlns="http://www.w3.org/2000/svg">
<path d="M14.3694 4.84722C15.1499 6.47974 15.2981 8.34353 14.7853 10.0789C14.2725 11.8142 13.1351 13.2981 11.5925 14.2441C10.05 15.1902 8.21172 15.5313 6.43247 15.2017C4.65322 14.872 3.05914 13.895 1.95788 12.4592C0.856627 11.0233 0.326266 9.23046 0.469159 7.42659C0.612052 5.62271 1.41807 3.93571 2.73165 2.69116C4.04523 1.44662 5.77325 0.732759 7.58221 0.687364C9.39117 0.641969 11.1528 1.26826 12.5272 2.44535L14.1212 0.850661C14.2267 0.745113 14.3699 0.685817 14.5191 0.685817C14.6684 0.685817 14.8115 0.745113 14.9171 0.850661C15.0226 0.956209 15.0819 1.09936 15.0819 1.24863C15.0819 1.3979 15.0226 1.54105 14.9171 1.6466L8.16709 8.3966C8.06155 8.50215 7.91839 8.56144 7.76912 8.56144C7.61986 8.56144 7.4767 8.50215 7.37116 8.3966C7.26561 8.29105 7.20631 8.1479 7.20631 7.99863C7.20631 7.84936 7.26561 7.70621 7.37116 7.60066L9.32022 5.6516C8.792 5.30225 8.16133 5.14141 7.53032 5.19509C6.89931 5.24878 6.30488 5.51386 5.84327 5.94742C5.38166 6.38098 5.07989 6.95764 4.9868 7.58405C4.89371 8.21047 5.01476 8.84996 5.33035 9.39902C5.64593 9.94808 6.13759 10.3746 6.72572 10.6094C7.31386 10.8443 7.96404 10.8738 8.57102 10.6931C9.178 10.5125 9.70625 10.1323 10.0702 9.61402C10.4342 9.09579 10.6127 8.46988 10.5767 7.83761C10.5725 7.76375 10.583 7.68978 10.6074 7.61995C10.6318 7.55011 10.6698 7.48577 10.7191 7.4306C10.7684 7.37543 10.8281 7.33051 10.8947 7.2984C10.9614 7.26629 11.0337 7.24763 11.1076 7.24347C11.2567 7.23508 11.4032 7.2863 11.5146 7.38585C11.5697 7.43515 11.6147 7.49483 11.6468 7.56148C11.6789 7.62814 11.6975 7.70046 11.7017 7.77433C11.753 8.66926 11.4974 9.55489 10.9771 10.2849C10.4569 11.0148 9.70312 11.5454 8.84045 11.789C7.97778 12.0325 7.05783 11.9744 6.23265 11.6243C5.40747 11.2742 4.72646 10.6529 4.30217 9.86333C3.87788 9.07371 3.73571 8.16296 3.89917 7.2816C4.06262 6.40024 4.52191 5.60103 5.20113 5.01606C5.88034 4.4311 6.73882 4.0954 7.63468 4.06444C8.53053 4.03349 9.41014 4.30913 10.1281 4.84582L11.7277 3.24621C10.5555 2.27294 9.06496 1.76709 7.54248 1.82581C6.01999 1.88453 4.57287 2.50368 3.47907 3.56435C2.38527 4.62501 1.7219 6.0524 1.61639 7.57237C1.51088 9.09233 1.97065 10.5977 2.90741 11.7993C3.84417 13.0009 5.19185 13.8141 6.69162 14.0826C8.1914 14.3511 9.7375 14.0561 11.033 13.2541C12.3285 12.4522 13.282 11.1998 13.7104 9.7377C14.1388 8.27555 14.0119 6.70666 13.354 5.33238C13.2897 5.19774 13.2815 5.04306 13.3312 4.90236C13.3809 4.76167 13.4845 4.64648 13.6191 4.58215C13.7538 4.51781 13.9084 4.50959 14.0491 4.55931C14.1898 4.60902 14.305 4.71258 14.3694 4.84722Z" fill="#5C5C5C"/>
</svg>
